<svg version="1.1" width="630" height="210" viewBox="0 0 630 210" xmlns="http://www.w3.org/2000/svg" xmlns:xlink="http://www.w3.org/1999/xlink"><g xmlns="http://www.w3.org/2000/svg" id="obj_2" transform="translate(0,0)"><rect x="0" y="0" width="630" height="210" fill="#ffffff" stroke="none" stroke-width="1" fill-opacity="0"/><defs/></g><g xmlns="http://www.w3.org/2000/svg" id="obj_1"><g id="obj_5" transform="matrix(0.7071067811865474,0.7071067811865477,-0.7071067811865477,0.7071067811865474,506.09536008177355,20.430622740244345)" opacity="1" display="inline"><path d="M7,0L143,0C146.864,0 150,3.1359999999999997 150,7L150,28C150,31.864 146.864,35 143,35L7,35C3.1359999999999997,35 0,31.864 0,28L0,7C0,3.1359999999999997 3.1359999999999997,0 7,0z" fill-opacity="1" fill="#82bae1" stroke-opacity="1" stroke="#434343" stroke-width="3" stroke-linecap="square" stroke-linejoin="miter"/><defs/></g><g id="obj_4" transform="matrix(0.7071067811865476,-0.7071067811865475,0.7071067811865475,0.7071067811865476,400.34162274024436,126.49663991822648)" opacity="1" display="inline"><path d="M7,0L143,0C146.864,0 150,3.1359999999999997 150,7L150,28C150,31.864 146.864,35 143,35L7,35C3.1359999999999997,35 0,31.864 0,28L0,7C0,3.1359999999999997 3.1359999999999997,0 7,0z" fill-opacity="1" fill="#57a0d2" stroke-opacity="1" stroke="#434343" stroke-width="3" stroke-linecap="square" stroke-linejoin="miter"/><defs/></g><g id="obj_11" transform="matrix(1,0,0,1,22.262,74.73)" opacity="1" display="inline"><path d="M 10.779 64.177 L 0 64.177 L 0 19.333 C 0 6.445 6.806 0 20.419 0 L 42.299 0 L 42.299 13.27 L 20.419 13.27 C 13.992 13.27 10.779 15.291 10.779 19.333 L 10.779 64.177 Z M 111.042 50.907 L 111.042 64.177 L 72.57 64.177 C 58.958 64.177 52.151 57.733 52.151 44.844 L 52.151 19.333 C 52.151 6.445 58.958 0 72.57 0 L 96.582 0 C 110.195 0 117.001 6.063 117.001 18.189 L 117.001 20.706 C 117.001 32.756 110.195 38.781 96.582 38.781 L 69.766 38.781 L 69.766 25.511 L 96.582 25.511 C 103.009 25.511 106.222 23.909 106.222 20.706 L 106.222 18.189 C 106.222 14.91 103.009 13.27 96.582 13.27 L 72.57 13.27 C 66.144 13.27 62.93 15.291 62.93 19.333 L 62.93 44.844 C 62.93 48.886 66.144 50.907 72.57 50.907 L 111.042 50.907 Z M 164.937 64.177 L 156.261 64.177 L 122.873 0 L 135.667 0 L 160.643 49.077 L 185.619 0 L 198.501 0 L 164.937 64.177 Z M 272.903 0 L 272.903 45.073 C 272.903 57.809 266.097 64.177 252.484 64.177 L 228.472 64.177 C 214.86 64.177 208.053 57.733 208.053 44.844 L 208.053 0 L 218.832 0 L 218.832 44.844 C 218.832 48.886 222.046 50.907 228.472 50.907 L 252.484 50.907 C 258.911 50.907 262.124 48.962 262.124 45.073 L 262.124 0 L 272.903 0 Z M 303.225 50.907 L 330.041 50.907 C 336.467 50.907 339.681 48.886 339.681 44.844 L 339.681 19.333 C 339.681 15.291 336.467 13.27 330.041 13.27 L 306.029 13.27 C 299.602 13.27 296.389 15.291 296.389 19.333 L 296.389 84.54 L 285.61 84.54 L 285.61 19.333 C 285.61 6.445 292.416 0 306.029 0 L 330.041 0 C 343.653 0 350.46 6.445 350.46 19.333 L 350.46 44.844 C 350.46 57.733 343.653 64.177 330.041 64.177 L 303.225 64.177 L 303.225 50.907 Z " fill-opacity="1" fill="#000000" stroke="none" stroke-width="1" stroke-linecap="square" stroke-linejoin="miter"/><defs/></g><g id="obj_12" transform="matrix(0.7071067811865474,0.7071067811865477,-0.7071067811865477,0.7071067811865474,505.57433047033635,87.65866094067262)" opacity="1" display="inline"><path d="M5,0L70,0C72.76,0 75,2.2399999999999998 75,5L75,20C75,22.76 72.76,25 70,25L5,25C2.2399999999999998,25 0,22.76 0,20L0,5C0,2.2399999999999998 2.2399999999999998,0 5,0z" fill-opacity="1" fill="#add4f0" stroke-opacity="1" stroke="#434343" stroke-width="3" stroke-linecap="square" stroke-linejoin="miter"/><defs/></g><g id="obj_13" transform="matrix(0.7071067811865474,0.7071067811865477,-0.7071067811865477,0.7071067811865474,505.9973982822018,139.28426265847082)" opacity="1" display="inline"><path d="M4,0L46,0C48.208,0 50,1.7919999999999998 50,4L50,16C50,18.208 48.208,20 46,20L4,20C1.7919999999999998,20 0,18.208 0,16L0,4C0,1.7919999999999998 1.7919999999999998,0 4,0z" fill-opacity="1" fill="#d8eeff" stroke-opacity="1" stroke="#434343" stroke-width="3" stroke-linecap="square" stroke-linejoin="miter"/><defs/></g><g id="obj_7" transform="matrix(0.7071067811865476,-0.7071067811865475,0.7071067811865475,0.7071067811865476,451.97066094067264,140.69166952966367)" opacity="1" display="inline"><path d="M5,0L70,0C72.76,0 75,2.2399999999999998 75,5L75,20C75,22.76 72.76,25 70,25L5,25C2.2399999999999998,25 0,22.76 0,20L0,5C0,2.2399999999999998 2.2399999999999998,0 5,0z" fill-opacity="1" fill="#82bae1" stroke-opacity="1" stroke="#434343" stroke-width="3" stroke-linecap="square" stroke-linejoin="miter"/><defs/></g><g id="obj_9" transform="matrix(0.7071067811865476,-0.7071067811865475,0.7071067811865475,0.7071067811865476,470.12126265847087,174.72760171779822)" opacity="1" display="inline"><path d="M4,0L46,0C48.208,0 50,1.7919999999999998 50,4L50,16C50,18.208 48.208,20 46,20L4,20C1.7919999999999998,20 0,18.208 0,16L0,4C0,1.7919999999999998 1.7919999999999998,0 4,0z" fill-opacity="1" fill="#add4f0" stroke-opacity="1" stroke="#434343" stroke-width="3" stroke-linecap="square" stroke-linejoin="miter"/><defs/></g></g></svg>