<svg version="1.1" width="630" height="250" viewBox="0 0 630 250" xmlns="http://www.w3.org/2000/svg" xmlns:xlink="http://www.w3.org/1999/xlink"><g xmlns="http://www.w3.org/2000/svg" id="obj_2" transform="translate(0,0)"><rect x="0" y="0" width="630" height="250" fill="#000000" stroke="none" stroke-width="1" fill-opacity="0"/><defs/></g><g xmlns="http://www.w3.org/2000/svg" id="obj_1"><g id="obj_5" transform="matrix(0.7071067811865474,0.7071067811865477,-0.7071067811865477,0.7071067811865474,504.09536008177355,17.430622740244345)" opacity="1" display="inline"><path d="M4.2,0L145.8,0C148.1184,0 150,1.8815999999999997 150,4.2L150,30.8C150,33.1184 148.1184,35 145.8,35L4.2,35C1.8815999999999997,35 0,33.1184 0,30.8L0,4.2C0,1.8815999999999997 1.8815999999999997,0 4.2,0z" fill-opacity="1" fill="#abdcf8" stroke="none" stroke-width="3" stroke-linecap="square" stroke-linejoin="miter"/><defs/></g><g id="obj_4" transform="matrix(0.7071067811865476,-0.7071067811865475,0.7071067811865475,0.7071067811865476,398.34162274024436,123.49663991822648)" opacity="1" display="inline"><path d="M4.2,0L145.8,0C148.1184,0 150,1.8815999999999997 150,4.2L150,30.8C150,33.1184 148.1184,35 145.8,35L4.2,35C1.8815999999999997,35 0,33.1184 0,30.8L0,4.2C0,1.8815999999999997 1.8815999999999997,0 4.2,0z" fill-opacity="1" fill="#d6eeff" stroke="none" stroke-width="3" stroke-linecap="square" stroke-linejoin="miter"/><defs/></g><g id="obj_11" transform="matrix(1,0,0,1,27.262,74.73)" opacity="1" display="inline"><path d="M 10.779 64.177 L 0 64.177 L 0 19.333 C 0 6.445 6.806 0 20.419 0 L 42.299 0 L 42.299 13.27 L 20.419 13.27 C 13.992 13.27 10.779 15.291 10.779 19.333 L 10.779 64.177 Z M 111.042 50.907 L 111.042 64.177 L 72.57 64.177 C 58.958 64.177 52.151 57.733 52.151 44.844 L 52.151 19.333 C 52.151 6.445 58.958 0 72.57 0 L 96.582 0 C 110.195 0 117.001 6.063 117.001 18.189 L 117.001 20.706 C 117.001 32.756 110.195 38.781 96.582 38.781 L 69.766 38.781 L 69.766 25.511 L 96.582 25.511 C 103.009 25.511 106.222 23.909 106.222 20.706 L 106.222 18.189 C 106.222 14.91 103.009 13.27 96.582 13.27 L 72.57 13.27 C 66.144 13.27 62.93 15.291 62.93 19.333 L 62.93 44.844 C 62.93 48.886 66.144 50.907 72.57 50.907 L 111.042 50.907 Z M 164.937 64.177 L 156.261 64.177 L 122.873 0 L 135.667 0 L 160.643 49.077 L 185.619 0 L 198.501 0 L 164.937 64.177 Z M 272.903 0 L 272.903 45.073 C 272.903 57.809 266.097 64.177 252.484 64.177 L 228.472 64.177 C 214.86 64.177 208.053 57.733 208.053 44.844 L 208.053 0 L 218.832 0 L 218.832 44.844 C 218.832 48.886 222.046 50.907 228.472 50.907 L 252.484 50.907 C 258.911 50.907 262.124 48.962 262.124 45.073 L 262.124 0 L 272.903 0 Z M 303.225 50.907 L 330.041 50.907 C 336.467 50.907 339.681 48.886 339.681 44.844 L 339.681 19.333 C 339.681 15.291 336.467 13.27 330.041 13.27 L 306.029 13.27 C 299.602 13.27 296.389 15.291 296.389 19.333 L 296.389 84.54 L 285.61 84.54 L 285.61 19.333 C 285.61 6.445 292.416 0 306.029 0 L 330.041 0 C 343.653 0 350.46 6.445 350.46 19.333 L 350.46 44.844 C 350.46 57.733 343.653 64.177 330.041 64.177 L 303.225 64.177 L 303.225 50.907 Z " fill-opacity="1" fill="#ffffff" stroke="none" stroke-width="1" stroke-linecap="square" stroke-linejoin="miter"/><defs/></g><g id="obj_12" transform="matrix(0.7071067811865474,0.7071067811865477,-0.7071067811865477,0.7071067811865474,504.57433047033635,87.65866094067262)" opacity="1" display="inline"><path d="M3,0L72,0C73.656,0 75,1.3439999999999999 75,3L75,22C75,23.656 73.656,25 72,25L3,25C1.3439999999999999,25 0,23.656 0,22L0,3C0,1.3439999999999999 1.3439999999999999,0 3,0z" fill-opacity="1" fill="#73c2ef" stroke="none" stroke-width="3" stroke-linecap="square" stroke-linejoin="miter"/><defs/></g><g id="obj_13" transform="matrix(0.7071067811865474,0.7071067811865477,-0.7071067811865477,0.7071067811865474,504.93229150101524,140.99136943965738)" opacity="1" display="inline"><path d="M2.16,0L47.84,0C49.032320000000006,0 50,0.9676799999999999 50,2.16L50,15.84C50,17.03232 49.032320000000006,18 47.84,18L2.16,18C0.9676799999999999,18 0,17.03232 0,15.84L0,2.16C0,0.9676799999999999 0.9676799999999999,0 2.16,0z" fill-opacity="1" fill="#57a0d8" stroke="none" stroke-width="3" stroke-linecap="square" stroke-linejoin="miter"/><defs/></g><g id="obj_7" transform="matrix(0.7071067811865476,-0.7071067811865475,0.7071067811865475,0.7071067811865476,450.97066094067264,140.69166952966367)" opacity="1" display="inline"><path d="M3,0L72,0C73.656,0 75,1.3439999999999999 75,3L75,22C75,23.656 73.656,25 72,25L3,25C1.3439999999999999,25 0,23.656 0,22L0,3C0,1.3439999999999999 1.3439999999999999,0 3,0z" fill-opacity="1" fill="#abdcf8" stroke="none" stroke-width="3" stroke-linecap="square" stroke-linejoin="miter"/><defs/></g><g id="obj_9" transform="matrix(0.7071067811865476,-0.7071067811865475,0.7071067811865475,0.7071067811865476,469.47036943965736,176.43470849898478)" opacity="1" display="inline"><path d="M2.16,0L47.84,0C49.032320000000006,0 50,0.9676799999999999 50,2.16L50,15.84C50,17.03232 49.032320000000006,18 47.84,18L2.16,18C0.9676799999999999,18 0,17.03232 0,15.84L0,2.16C0,0.9676799999999999 0.9676799999999999,0 2.16,0z" fill-opacity="1" fill="#73c2ef" stroke="none" stroke-width="3" stroke-linecap="square" stroke-linejoin="miter"/><defs/></g></g></svg>