<svg version="1.1" width="630" height="210" viewBox="0 0 630 210" xmlns="http://www.w3.org/2000/svg" xmlns:xlink="http://www.w3.org/1999/xlink"><g xmlns="http://www.w3.org/2000/svg" id="obj_2" transform="translate(0,0)"><rect x="0" y="0" width="630" height="210" fill="#ffffff" stroke="none" stroke-width="1" fill-opacity="0"/><defs/></g><g xmlns="http://www.w3.org/2000/svg" id="obj_1"><g id="obj_3" transform="matrix(1,0,0,1,0,0)" opacity="1" display="inline"><path d="M 0 210 L 0 0 L 630 0 L 630 210 L 0 210 Z " fill-opacity="0" fill="#ffffff" stroke="none" stroke-width="1" stroke-linecap="square" stroke-linejoin="miter"/><defs/></g><g id="obj_4" transform="matrix(1,0,0,1,484.247,23.331)" opacity="1" display="inline"><path d="M 26.798 2.049 L 122.965 98.216 C 125.697 100.948 125.697 105.383 122.965 108.115 L 108.115 122.965 C 105.383 125.697 100.948 125.697 98.216 122.965 L 2.049 26.798 C -0.683 24.066 -0.683 19.631 2.049 16.899 L 16.899 2.049 C 19.631 -0.683 24.066 -0.683 26.798 2.049 Z " fill-opacity="1" fill="#add4f0" stroke-opacity="1" stroke="#434343" stroke-width="3" stroke-linecap="square" stroke-linejoin="miter"/><defs/></g><g id="obj_5" transform="matrix(1,0,0,1,403.242,23.331)" opacity="1" display="inline"><path d="M 2.049 98.216 L 98.216 2.049 C 100.948 -0.683 105.383 -0.683 108.115 2.049 L 122.965 16.899 C 125.697 19.631 125.697 24.066 122.965 26.798 L 26.798 122.965 C 24.066 125.697 19.631 125.697 16.899 122.965 L 2.049 108.115 C -0.683 105.383 -0.683 100.948 2.049 98.216 Z " fill-opacity="1" fill="#d8eeff" stroke-opacity="1" stroke="#434343" stroke-width="3" stroke-linecap="square" stroke-linejoin="miter"/><defs/></g><g id="obj_6" transform="matrix(1,0,0,1,22.262,74.73)" opacity="1" display="inline"><path d="M 10.779 64.177 L 0 64.177 L 0 19.333 C 0 6.445 6.806 0 20.419 0 L 42.299 0 L 42.299 13.27 L 20.419 13.27 C 13.992 13.27 10.779 15.291 10.779 19.333 L 10.779 64.177 Z M 111.042 50.907 L 111.042 64.177 L 72.57 64.177 C 58.958 64.177 52.151 57.733 52.151 44.844 L 52.151 19.333 C 52.151 6.445 58.958 0 72.57 0 L 96.582 0 C 110.195 0 117.001 6.063 117.001 18.189 L 117.001 20.706 C 117.001 32.756 110.195 38.781 96.582 38.781 L 69.766 38.781 L 69.766 25.511 L 96.582 25.511 C 103.009 25.511 106.222 23.909 106.222 20.706 L 106.222 18.189 C 106.222 14.91 103.009 13.27 96.582 13.27 L 72.57 13.27 C 66.144 13.27 62.93 15.291 62.93 19.333 L 62.93 44.844 C 62.93 48.886 66.144 50.907 72.57 50.907 L 111.042 50.907 Z M 164.937 64.177 L 156.261 64.177 L 122.873 0 L 135.667 0 L 160.643 49.077 L 185.619 0 L 198.501 0 L 164.937 64.177 Z M 272.903 0 L 272.903 45.073 C 272.903 57.809 266.097 64.177 252.484 64.177 L 228.472 64.177 C 214.86 64.177 208.053 57.733 208.053 44.844 L 208.053 0 L 218.832 0 L 218.832 44.844 C 218.832 48.886 222.046 50.907 228.472 50.907 L 252.484 50.907 C 258.911 50.907 262.124 48.962 262.124 45.073 L 262.124 0 L 272.903 0 Z M 303.225 50.907 L 330.041 50.907 C 336.467 50.907 339.681 48.886 339.681 44.844 L 339.681 19.333 C 339.681 15.291 336.467 13.27 330.041 13.27 L 306.029 13.27 C 299.602 13.27 296.389 15.291 296.389 19.333 L 296.389 84.54 L 285.61 84.54 L 285.61 19.333 C 285.61 6.445 292.416 0 306.029 0 L 330.041 0 C 343.653 0 350.46 6.445 350.46 19.333 L 350.46 44.844 C 350.46 57.733 343.653 64.177 330.041 64.177 L 303.225 64.177 L 303.225 50.907 Z " fill-opacity="1" fill="#ffffff" stroke="none" stroke-width="1" stroke-linecap="square" stroke-linejoin="miter"/><defs/></g><g id="obj_7" transform="matrix(1,0,0,1,489.968,89.73)" opacity="1" display="inline"><path d="M 19.1414 1.4633 L 65.1037 47.4256 C 67.0548 49.3776 67.0548 52.5456 65.1037 54.4967 L 54.4967 65.1037 C 52.5456 67.0548 49.3776 67.0548 47.4256 65.1037 L 1.4633 19.1414 C -0.4878 17.1894 -0.4878 14.0214 1.4633 12.0703 L 12.0703 1.4633 C 14.0214 -0.4878 17.1894 -0.4878 19.1414 1.4633 Z " fill-opacity="1" fill="#82bae1" stroke-opacity="1" stroke="#434343" stroke-width="3" stroke-linecap="square" stroke-linejoin="miter"/><defs/></g><g id="obj_8" transform="matrix(1,0,0,1,493.513,140.942)" opacity="1" display="inline"><path d="M 15.3135 1.1715 L 45.0115 30.8695 C 46.5735 32.4305 46.5735 34.9655 45.0115 36.5265 L 36.5265 45.0115 C 34.9655 46.5735 32.4305 46.5735 30.8695 45.0115 L 1.1715 15.3135 C -0.3905 13.7525 -0.3905 11.2175 1.1715 9.6565 L 9.6565 1.1715 C 11.2175 -0.3905 13.7525 -0.3905 15.3135 1.1715 Z " fill-opacity="1" fill="#57a0d2" stroke-opacity="1" stroke="#434343" stroke-width="3" stroke-linecap="square" stroke-linejoin="miter"/><defs/></g><g id="obj_9" transform="matrix(1,0,0,1,454.042,89.73)" opacity="1" display="inline"><path d="M 1.4633 47.4256 L 47.4256 1.4633 C 49.3776 -0.4878 52.5456 -0.4878 54.4967 1.4633 L 65.1037 12.0703 C 67.0548 14.0214 67.0548 17.1894 65.1037 19.1414 L 19.1414 65.1037 C 17.1894 67.0548 14.0214 67.0548 12.0703 65.1037 L 1.4633 54.4967 C -0.4878 52.5456 -0.4878 49.3776 1.4633 47.4256 Z " fill-opacity="1" fill="#add4f0" stroke-opacity="1" stroke="#434343" stroke-width="3" stroke-linecap="square" stroke-linejoin="miter"/><defs/></g><g id="obj_10" transform="matrix(1,0,0,1,471.779,141.03)" opacity="1" display="inline"><path d="M 1.1715 30.8695 L 30.8695 1.1715 C 32.4305 -0.3905 34.9655 -0.3905 36.5265 1.1715 L 45.0115 9.6565 C 46.5735 11.2175 46.5735 13.7525 45.0115 15.3135 L 15.3135 45.0115 C 13.7525 46.5735 11.2175 46.5735 9.6565 45.0115 L 1.1715 36.5265 C -0.3905 34.9655 -0.3905 32.4305 1.1715 30.8695 Z " fill-opacity="1" fill="#82bae1" stroke-opacity="1" stroke="#434343" stroke-width="3" stroke-linecap="square" stroke-linejoin="miter"/><defs/></g></g></svg>